<svg xmlns="http://www.w3.org/2000/svg" xmlns:svg="http://www.w3.org/2000/svg" id="svg9100" width="46" height="14" version="1.1"><metadata id="metadata9105"/><g id="layer1" transform="translate(9.9999828,-1037.3622)"><rect style="color:#000;fill:#000;fill-opacity:1;fill-rule:nonzero;stroke:#939dac;stroke-width:1;stroke-linecap:round;stroke-linejoin:round;stroke-miterlimit:4;stroke-opacity:1;stroke-dasharray:none;marker:none;visibility:visible;display:inline;overflow:visible;enable-background:accumulate" id="rect9112" width="8" height="8" x=".5" y="1042.862" rx="1.5" ry="1.5"/><rect style="color:#000;fill:#b7bec8;fill-opacity:1;fill-rule:nonzero;stroke:none;stroke-width:1;marker:none;visibility:visible;display:inline;overflow:visible;enable-background:accumulate" id="rect9624" width="1" height="5" x="2" y="1044.362"/><rect id="rect9626" width="1" height="5" x="6" y="1044.362" style="color:#000;fill:#b7bec8;fill-opacity:1;fill-rule:nonzero;stroke:none;stroke-width:1;marker:none;visibility:visible;display:inline;overflow:visible;enable-background:accumulate"/><path style="color:#000;fill:#b7bec8;fill-opacity:1;fill-rule:nonzero;stroke:none;stroke-width:1;marker:none;visibility:visible;display:inline;overflow:visible;enable-background:accumulate" id="rect9628" d="m 3,1046.3622 0,-2 2,3 0,1 -1,0 -1,-2 z"/><path id="path9633" d="m 6,1046.3622 0,-2 -2,3 0,1 1,0 1,-2 z" style="color:#000;fill:#b7bec8;fill-opacity:1;fill-rule:nonzero;stroke:none;stroke-width:1;marker:none;visibility:visible;display:inline;overflow:visible;enable-background:accumulate"/><rect id="rect8294" width="10" height="10" x="10.5" y="1040.862" rx="1.5" ry="1.5" style="color:#000;fill:#000;fill-opacity:1;fill-rule:nonzero;stroke:#939dac;stroke-width:.99999994;stroke-linecap:round;stroke-linejoin:round;stroke-miterlimit:4;stroke-opacity:1;stroke-dasharray:none;marker:none;visibility:visible;display:inline;overflow:visible;enable-background:accumulate"/><rect id="rect8296" width="1" height="7" x="12" y="1042.362" style="color:#000;fill:#b7bec8;fill-opacity:1;fill-rule:nonzero;stroke:none;stroke-width:1;marker:none;visibility:visible;display:inline;overflow:visible;enable-background:accumulate"/><rect style="color:#000;fill:#b7bec8;fill-opacity:1;fill-rule:nonzero;stroke:none;stroke-width:1;marker:none;visibility:visible;display:inline;overflow:visible;enable-background:accumulate" id="rect8298" width="1" height="7" x="18" y="1042.362"/><path id="path8300" d="m 13,1044.3622 0,-2 3,5 0,1 -1,0 -2,-4 z" style="color:#000;fill:#b7bec8;fill-opacity:1;fill-rule:nonzero;stroke:none;stroke-width:1;marker:none;visibility:visible;display:inline;overflow:visible;enable-background:accumulate"/><path style="color:#000;fill:#b7bec8;fill-opacity:1;fill-rule:nonzero;stroke:none;stroke-width:1;marker:none;visibility:visible;display:inline;overflow:visible;enable-background:accumulate" id="path8302" d="m 18,1044.3622 0,-2 -3,5 0,1 1,0 2,-4 z"/><rect style="color:#000;fill:#000;fill-opacity:1;fill-rule:nonzero;stroke:#939dac;stroke-width:.99999994;stroke-linecap:round;stroke-linejoin:round;stroke-miterlimit:4;stroke-opacity:1;stroke-dasharray:none;marker:none;visibility:visible;display:inline;overflow:visible;enable-background:accumulate" id="rect8304" width="13" height="13" x="22.5" y="1037.862" rx="1.5" ry="1.5"/><rect style="color:#000;fill:#b7bec8;fill-opacity:1;fill-rule:nonzero;stroke:none;stroke-width:1;marker:none;visibility:visible;display:inline;overflow:visible;enable-background:accumulate" id="rect8306" width="2" height="10" x="24" y="1039.362"/><rect id="rect8308" width="2" height="10" x="32" y="1039.362" style="color:#000;fill:#b7bec8;fill-opacity:1;fill-rule:nonzero;stroke:none;stroke-width:1;marker:none;visibility:visible;display:inline;overflow:visible;enable-background:accumulate"/><path style="color:#000;fill:#b7bec8;fill-opacity:1;fill-rule:nonzero;stroke:none;stroke-width:1;marker:none;visibility:visible;display:inline;overflow:visible;enable-background:accumulate" id="path8310" d="m 26,1043.3622 0,-4 4,8 0,1 -2,0 -2,-5 z"/><path id="path8312" d="m 32,1043.3622 0,-4 -4,8 0,1 2,0 2,-5 z" style="color:#000;fill:#b7bec8;fill-opacity:1;fill-rule:nonzero;stroke:none;stroke-width:1;marker:none;visibility:visible;display:inline;overflow:visible;enable-background:accumulate"/><g id="g8324" style="opacity:.8"><rect style="color:#000;fill:#000;fill-opacity:1;fill-rule:nonzero;stroke:#939dac;stroke-width:1;stroke-linecap:round;stroke-linejoin:round;stroke-miterlimit:4;stroke-opacity:1;stroke-dasharray:none;marker:none;visibility:visible;display:inline;overflow:visible;enable-background:accumulate" id="rect8314" width="8" height="8" x="-9.5" y="1042.862" rx="1.5" ry="1.5"/><rect style="color:#000;fill:#b7bec8;fill-opacity:1;fill-rule:nonzero;stroke:none;stroke-width:1;marker:none;visibility:visible;display:inline;overflow:visible;enable-background:accumulate" id="rect8316" width="1" height="5" x="-8" y="1044.362"/><rect id="rect8318" width="1" height="5" x="-4" y="1044.362" style="color:#000;fill:#b7bec8;fill-opacity:1;fill-rule:nonzero;stroke:none;stroke-width:1;marker:none;visibility:visible;display:inline;overflow:visible;enable-background:accumulate"/><path style="color:#000;fill:#b7bec8;fill-opacity:1;fill-rule:nonzero;stroke:none;stroke-width:1;marker:none;visibility:visible;display:inline;overflow:visible;enable-background:accumulate" id="path8320" d="m -7,1046.3622 0,-2 2,3 0,1 -1,0 -1,-2 z"/><path id="path8322" d="m -4,1046.3622 0,-2 -2,3 0,1 1,0 1,-2 z" style="color:#000;fill:#b7bec8;fill-opacity:1;fill-rule:nonzero;stroke:none;stroke-width:1;marker:none;visibility:visible;display:inline;overflow:visible;enable-background:accumulate"/></g></g></svg>